<svg width="110" height="31" viewBox="0 0 110 31" fill="none" xmlns="http://www.w3.org/2000/svg">
<path d="M14.7765 30.4989C6.62789 30.4989 0 23.8044 0 15.5832C0 7.36201 6.62789 0.66748 14.7765 0.66748C20.4375 0.66748 25.6677 4.00159 28.1114 9.1519L28.7003 10.389L24.5689 14.5567L21.8175 11.8192L23.9624 9.65202C21.9758 6.51971 18.5036 4.55434 14.7765 4.55434C8.77272 4.55434 3.88532 9.50286 3.88532 15.5744C3.88532 21.646 8.77272 26.5945 14.7765 26.5945C18.5036 26.5945 21.9758 24.6292 23.9624 21.4969L16.4291 13.8811C15.9896 13.4336 15.4006 13.1879 14.7765 13.1879C14.1524 13.1879 13.5722 13.4336 13.1239 13.8811C12.2009 14.8111 12.2009 16.3202 13.1239 17.2503C13.5634 17.6977 14.1524 17.9434 14.7765 17.9434C15.4006 17.9434 15.9808 17.6977 16.4291 17.2503L17.0971 16.5659L19.8573 19.3034L19.1804 19.9877C18.0025 21.181 16.4379 21.8303 14.7765 21.8303C13.1151 21.8303 11.5505 21.1722 10.3726 19.9877C7.95522 17.5486 7.95522 13.574 10.3726 11.1348C11.5505 9.95033 13.1063 9.29228 14.7765 9.29228C16.4379 9.29228 18.0025 9.95033 19.1804 11.1348L28.7003 20.7511L28.1114 21.9882C25.6677 27.1648 20.4287 30.4989 14.7765 30.4989Z" fill="white"/>
<path d="M54.6602 11.9075C51.065 11.9075 48.1466 14.8204 48.1466 18.409C48.1466 21.9975 51.065 24.9105 54.6602 24.9105C58.2554 24.9105 61.1738 21.9975 61.1738 18.409C61.1738 14.8117 58.2642 11.9075 54.6602 11.9075ZM54.6602 22.0677C52.6296 22.0677 50.9858 20.427 50.9858 18.4002C50.9858 16.3734 52.6296 14.7327 54.6602 14.7327C56.6907 14.7327 58.3345 16.3734 58.3345 18.4002C58.3345 20.427 56.6907 22.0677 54.6602 22.0677Z" fill="white"/>
<path d="M43.6282 21.672C40.2615 21.672 37.5277 18.9432 37.5277 15.5828C37.5277 12.2224 40.2615 9.49369 43.6282 9.49369C45.6676 9.49369 47.4784 10.4939 48.5859 12.0381C49.3155 11.2397 50.177 10.5641 51.1439 10.0465C49.4386 7.74768 46.7136 6.2561 43.6282 6.2561C38.4683 6.26488 34.2841 10.4325 34.2841 15.5828C34.2841 20.7331 38.4683 24.9008 43.6194 24.9008C45.1841 24.9008 46.6521 24.5147 47.9443 23.8391C47.3114 22.9705 46.8191 21.9878 46.5202 20.9349C45.6588 21.4087 44.6743 21.672 43.6282 21.672Z" fill="white"/>
<path d="M66.0706 12.2483H63.1698V24.9091H66.0706V12.2483Z" fill="white"/>
<path d="M83.0761 6.29109V24.9007H86.1703H94.6178V21.821H86.1703V17.1094H93.6157V14.021H86.1703V9.34443H94.6178V6.26477H83.0761V6.29109Z" fill="white"/>
<path d="M109.001 11.7936H105.494L102.813 15.7594L100.15 11.7936H96.6422L101.055 18.3477L96.607 24.9019H100.114L102.795 20.9448L105.468 24.9019H108.975L104.562 18.3477L109.001 11.7936Z" fill="white"/>
<path d="M74.5801 11.6161C72.9275 11.6161 71.4243 12.2303 70.2816 13.2393L68.0664 11.774V24.9086H70.9057V18.1176C70.9057 16.0908 72.5495 14.4501 74.5801 14.4501C76.6106 14.4501 78.2544 16.0908 78.2544 18.1176V24.9086H81.0937V18.1176C81.0937 14.529 78.1753 11.6161 74.5801 11.6161Z" fill="white"/>
<path d="M64.6163 10.257C65.7232 10.257 66.6205 9.36139 66.6205 8.25657C66.6205 7.15174 65.7232 6.2561 64.6163 6.2561C63.5095 6.2561 62.6122 7.15174 62.6122 8.25657C62.6122 9.36139 63.5095 10.257 64.6163 10.257Z" fill="white"/>
</svg>
